<svg width="120" height="120" viewBox="0 0 120 120" fill="none" xmlns="http://www.w3.org/2000/svg">
<path d="M42.4981 62.5L89.641 21.3972C92.1575 19.203 95.9435 19.3324 98.3045 21.6934C100.666 24.0544 100.795 27.8404 98.601 30.3571L57.498 77.5M15.2161 97.301L23.316 89.23C25.3882 87.1655 26.9982 84.684 28.0395 81.9505L28.9221 79.6335C30.8994 74.4425 36.8846 72.042 41.901 74.428C43.8156 75.3385 45.3712 76.8625 46.3209 78.758L46.4613 79.0385C48.5532 83.2135 47.614 88.2705 44.1624 91.416L41.6962 93.6635C37.7655 97.2455 32.8294 99.534 27.5557 100.219L17.3027 101.551C14.9339 101.859 13.5239 98.987 15.2161 97.301Z" stroke="black" stroke-width="3" stroke-linecap="round"/>
</svg>
