<svg width="26" height="26" viewBox="0 0 26 26" fill="none" xmlns="http://www.w3.org/2000/svg">
<path d="M20.5834 11.1201C20.5834 14.2035 16.7672 19.3099 14.5492 22.0174C13.7377 23.008 12.2624 23.008 11.4509 22.0174C9.23285 19.3099 5.41669 14.2035 5.41669 11.1201C5.41669 6.77356 8.81186 3.25 13 3.25C17.1882 3.25 20.5834 6.77356 20.5834 11.1201Z" stroke="white" stroke-width="1.5" stroke-linecap="round"/>
<path d="M15.8171 10.8333C15.8171 12.3889 14.556 13.65 13.0005 13.65C11.4449 13.65 10.1838 12.3889 10.1838 10.8333C10.1838 9.27767 11.4449 8.0166 13.0005 8.0166C14.556 8.0166 15.8171 9.27767 15.8171 10.8333Z" stroke="white" stroke-width="1.5" stroke-linecap="round"/>
</svg>
