<svg width="32" height="32" viewBox="0 0 32 32" fill="none" xmlns="http://www.w3.org/2000/svg">
<path d="M17.3707 2.66675C18.8707 2.67075 19.632 2.67875 20.2893 2.69741L20.548 2.70675C20.8467 2.71741 21.1413 2.73075 21.4973 2.74675C22.916 2.81341 23.884 3.03741 24.7333 3.36675C25.6133 3.70541 26.3547 4.16408 27.096 4.90408C27.774 5.57061 28.2986 6.37687 28.6333 7.26675C28.9627 8.11608 29.1867 9.08408 29.2533 10.5041C29.2693 10.8587 29.2827 11.1534 29.2933 11.4534L29.3013 11.7121C29.3213 12.3681 29.3293 13.1294 29.332 14.6294L29.3333 15.6241V17.3707C29.3366 18.3433 29.3264 19.3158 29.3027 20.2881L29.2947 20.5467C29.284 20.8467 29.2707 21.1414 29.2547 21.4961C29.188 22.9161 28.9613 23.8827 28.6333 24.7334C28.2996 25.6238 27.7748 26.4302 27.096 27.0961C26.4293 27.7738 25.6231 28.2984 24.7333 28.6334C23.884 28.9627 22.916 29.1868 21.4973 29.2534C21.181 29.2683 20.8645 29.2816 20.548 29.2934L20.2893 29.3014C19.632 29.3201 18.8707 29.3294 17.3707 29.3321L16.376 29.3334H14.6307C13.6577 29.3368 12.6847 29.3265 11.712 29.3027L11.4533 29.2948C11.1368 29.2828 10.8204 29.269 10.504 29.2534C9.08533 29.1868 8.11733 28.9627 7.26666 28.6334C6.37689 28.2992 5.57095 27.7745 4.90533 27.0961C4.22672 26.4298 3.70163 25.6235 3.36666 24.7334C3.03733 23.8841 2.81333 22.9161 2.74666 21.4961C2.73181 21.1797 2.71847 20.8633 2.70666 20.5467L2.7 20.2881C2.67543 19.3158 2.66431 18.3433 2.66666 17.3707V14.6294C2.66294 13.6569 2.67272 12.6843 2.696 11.7121L2.70533 11.4534C2.716 11.1534 2.72933 10.8587 2.74533 10.5041C2.812 9.08408 3.036 8.11741 3.36533 7.26675C3.70015 6.37595 4.22629 5.56945 4.90666 4.90408C5.57212 4.22605 6.37752 3.7014 7.26666 3.36675C8.11733 3.03741 9.084 2.81341 10.504 2.74675C10.8587 2.73075 11.1547 2.71741 11.4533 2.70675L11.712 2.69875C12.6843 2.67506 13.6568 2.66484 14.6293 2.66808L17.3707 2.66675ZM16 9.33342C14.2319 9.33342 12.5362 10.0358 11.286 11.286C10.0357 12.5363 9.33333 14.232 9.33333 16.0001C9.33333 17.7682 10.0357 19.4639 11.286 20.7141C12.5362 21.9644 14.2319 22.6667 16 22.6667C17.7681 22.6667 19.4638 21.9644 20.714 20.7141C21.9643 19.4639 22.6667 17.7682 22.6667 16.0001C22.6667 14.232 21.9643 12.5363 20.714 11.286C19.4638 10.0358 17.7681 9.33342 16 9.33342ZM16 12.0001C16.5253 12 17.0454 12.1034 17.5308 12.3043C18.0161 12.5052 18.4571 12.7998 18.8286 13.1712C19.2001 13.5426 19.4948 13.9835 19.6959 14.4687C19.897 14.954 20.0006 15.4741 20.0007 15.9994C20.0008 16.5247 19.8974 17.0449 19.6964 17.5302C19.4955 18.0155 19.2009 18.4565 18.8296 18.828C18.4582 19.1995 18.0173 19.4942 17.532 19.6953C17.0467 19.8964 16.5266 20 16.0013 20.0001C14.9405 20.0001 13.923 19.5787 13.1729 18.8285C12.4228 18.0784 12.0013 17.0609 12.0013 16.0001C12.0013 14.9392 12.4228 13.9218 13.1729 13.1717C13.923 12.4215 14.9405 12.0001 16.0013 12.0001M23.0013 7.33342C22.5593 7.33342 22.1354 7.50901 21.8228 7.82157C21.5103 8.13413 21.3347 8.55805 21.3347 9.00008C21.3347 9.44211 21.5103 9.86603 21.8228 10.1786C22.1354 10.4912 22.5593 10.6667 23.0013 10.6667C23.4434 10.6667 23.8673 10.4912 24.1798 10.1786C24.4924 9.86603 24.668 9.44211 24.668 9.00008C24.668 8.55805 24.4924 8.13413 24.1798 7.82157C23.8673 7.50901 23.4434 7.33342 23.0013 7.33342Z" fill="white"/>
</svg>
