<svg width="121" height="120" viewBox="0 0 121 120" fill="none" xmlns="http://www.w3.org/2000/svg">
<path d="M95.5 35H50.5M95.5 60H50.5M95.5 85H50.5M28 32.5L33 27.5V42.5M28 77.5H31.8091C33.8475 77.5 35.5 79.1525 35.5 81.191C35.5 83.1135 34.0239 84.714 32.1076 84.8695L30.5 85L32.0636 85.1115C33.9997 85.249 35.5 86.86 35.5 88.801C35.5 90.844 33.8439 92.5 31.801 92.5H28M35.5 67.5H28C28 65.938 28.7806 64.4795 30.0801 63.6135L33.3245 61.4505C34.6836 60.544 35.5 59.019 35.5 57.3855V56.25C35.5 54.179 33.821 52.5 31.75 52.5C29.679 52.5 28 54.179 28 56.25V57.5" stroke="black" stroke-width="3" stroke-linecap="round"/>
</svg>
