<svg width="28" height="28" viewBox="0 0 28 28" fill="none" xmlns="http://www.w3.org/2000/svg">
<path d="M3.5 5.83333L5.68345 6.56115C6.49482 6.8316 7.09321 7.52428 7.2429 8.36633L8.52446 15.5751C8.72244 16.6887 9.69066 17.5 10.8218 17.5H19.712C20.7513 17.5 21.6652 16.8127 21.9536 15.8143L23.6389 9.98092C24.0699 8.48887 22.9502 6.99999 21.3971 6.99999H10.5M11.6667 21.5833C11.6667 22.5498 10.8832 23.3333 9.91667 23.3333C8.95017 23.3333 8.16667 22.5498 8.16667 21.5833C8.16667 20.6169 8.95017 19.8333 9.91667 19.8333C10.8832 19.8333 11.6667 20.6169 11.6667 21.5833ZM21 21.5833C21 22.5498 20.2165 23.3333 19.25 23.3333C18.2835 23.3333 17.5 22.5498 17.5 21.5833C17.5 20.6169 18.2835 19.8333 19.25 19.8333C20.2165 19.8333 21 20.6169 21 21.5833Z" stroke="black" stroke-width="1.25" stroke-linecap="round"/>
</svg>
