<svg width="32" height="32" viewBox="0 0 32 32" fill="none" xmlns="http://www.w3.org/2000/svg">
<path d="M16 2.66675C8.63996 2.66675 2.66663 8.64008 2.66663 16.0001C2.66663 23.3601 8.63996 29.3334 16 29.3334C23.36 29.3334 29.3333 23.3601 29.3333 16.0001C29.3333 8.64008 23.36 2.66675 16 2.66675ZM22.1866 11.7334C21.9866 13.8401 21.12 18.9601 20.68 21.3201C20.4933 22.3201 20.12 22.6534 19.7733 22.6934C19 22.7601 18.4133 22.1867 17.6666 21.6934C16.4933 20.9201 15.8266 20.4401 14.6933 19.6934C13.3733 18.8267 14.2266 18.3467 14.9866 17.5734C15.1866 17.3734 18.6 14.2667 18.6666 13.9867C18.6759 13.9443 18.6747 13.9003 18.663 13.8585C18.6514 13.8167 18.6298 13.7783 18.6 13.7467C18.52 13.6801 18.4133 13.7067 18.32 13.7201C18.2 13.7467 16.3333 14.9867 12.6933 17.4401C12.16 17.8001 11.68 17.9867 11.2533 17.9734C10.7733 17.9601 9.86663 17.7067 9.18663 17.4801C8.34663 17.2134 7.69329 17.0667 7.74663 16.6001C7.77329 16.3601 8.10663 16.1201 8.73329 15.8667C12.6266 14.1734 15.2133 13.0534 16.5066 12.5201C20.2133 10.9734 20.9733 10.7067 21.48 10.7067C21.5866 10.7067 21.84 10.7334 22 10.8667C22.1333 10.9734 22.1733 11.1201 22.1866 11.2267C22.1733 11.3067 22.2 11.5467 22.1866 11.7334Z" fill="white"/>
</svg>
