<svg width="120" height="120" viewBox="0 0 120 120" fill="none" xmlns="http://www.w3.org/2000/svg">
<path d="M76.265 50.5545L59.401 71.561C57.5375 73.8825 54.0715 74.0715 51.9665 71.9665L45 65" stroke="black" stroke-width="3" stroke-linecap="round"/>
<path d="M65.292 21.4725C66.33 20.8044 66.849 20.4704 67.27 20.2527C72.59 17.5022 79.118 20.0127 81.224 25.6189C81.3905 26.0625 81.552 26.6582 81.875 27.8497C82.024 28.3998 82.0985 28.6749 82.182 28.9279C83.191 31.9937 85.6175 34.384 88.698 35.3467C88.9525 35.4261 89.2285 35.4965 89.781 35.6373L90.531 35.8284C93.126 36.49 94.4235 36.8207 95.371 37.2907C99.6785 39.4267 101.856 44.3257 100.556 48.9543C100.27 49.9727 99.6455 51.1575 98.398 53.527L98.0375 54.212C97.772 54.716 97.639 54.9685 97.5275 55.2105C96.178 58.142 96.3265 61.545 97.9265 64.3485C98.0585 64.5795 98.2125 64.8195 98.521 65.2985C99.189 66.3365 99.523 66.8555 99.741 67.2765C102.492 72.5965 99.981 79.1245 94.3745 81.2305C93.931 81.397 93.3355 81.5585 92.144 81.8815C91.594 82.0305 91.3185 82.105 91.0655 82.1885C88 83.1975 85.6095 85.624 84.647 88.7045C84.5675 88.959 84.497 89.235 84.3565 89.7875L84.165 90.537C83.5035 93.1325 83.173 94.43 82.703 95.3775C80.567 99.685 75.668 101.863 71.0395 100.562C70.021 100.276 68.836 99.652 66.4665 98.404L65.782 98.0435C65.2775 97.778 65.0255 97.6455 64.7835 97.534C61.8515 96.1845 58.4485 96.333 55.6455 97.9325C55.414 98.065 55.1745 98.219 54.695 98.5275C53.657 99.1955 53.138 99.5295 52.717 99.7475C47.3973 102.498 40.8692 99.9875 38.7631 94.381C38.5965 93.9375 38.435 93.342 38.1121 92.1505C37.963 91.6 37.8885 91.325 37.8052 91.072C36.7962 88.0065 34.3696 85.616 31.2889 84.6535C31.0347 84.574 30.7585 84.5035 30.2062 84.3625L29.4564 84.1715C26.8613 83.51 25.5638 83.1795 24.6161 82.7095C20.3088 80.5735 18.1312 75.6745 19.4316 71.0455C19.7177 70.0275 20.3416 68.8425 21.5894 66.473L21.9499 65.788C22.2154 65.284 22.3482 65.0315 22.4596 64.7895C23.8091 61.858 23.6606 58.455 22.0608 55.6515C21.9288 55.4205 21.7746 55.1805 21.4661 54.7015C20.798 53.6635 20.4639 53.1445 20.2463 52.7235C17.4958 47.4037 20.0063 40.8756 25.6125 38.7695C26.0561 38.6029 26.6518 38.4414 27.8433 38.1185C28.3934 37.9694 28.6684 37.8949 28.9215 37.8116C31.9873 36.8026 34.3776 34.376 35.3403 31.2954C35.4197 31.0411 35.4901 30.7649 35.6309 30.2126L35.822 29.4628C36.4836 26.8677 36.8143 25.5702 37.2843 24.6225C39.4203 20.3152 44.3192 18.1376 48.9479 19.438C49.9663 19.7241 51.151 20.348 53.5205 21.5958L54.2055 21.9563C54.7095 22.2218 54.962 22.3546 55.204 22.466C58.1355 23.8155 61.5385 23.667 64.342 22.0673C64.573 21.9352 64.813 21.781 65.292 21.4725Z" stroke="black" stroke-width="3" stroke-linecap="round"/>
</svg>
