<svg width="32" height="32" viewBox="0 0 32 32" fill="none" xmlns="http://www.w3.org/2000/svg">
<path d="M20.0973 2.66675H11.9173C4.44263 2.66675 2.66663 4.44408 2.66663 11.9027V20.0841C2.66663 27.5561 4.43063 29.3334 11.9026 29.3334H20.084C27.556 29.3334 29.3333 27.5694 29.3333 20.0974V11.9174C29.3333 4.44275 27.5693 2.66675 20.0973 2.66675ZM24.1946 21.6934H22.2493C21.5133 21.6934 21.292 21.0974 19.972 19.7774C18.82 18.6667 18.3333 18.5281 18.0413 18.5281C17.6386 18.5281 17.528 18.6387 17.528 19.1947V20.9441C17.528 21.4174 17.3746 21.6947 16.1386 21.6947C14.9391 21.6141 13.7759 21.2497 12.7448 20.6315C11.7137 20.0132 10.8442 19.1589 10.208 18.1387C8.69752 16.2587 7.64655 14.0523 7.13863 11.6947C7.13863 11.4027 7.24929 11.1387 7.80529 11.1387H9.75063C10.2506 11.1387 10.4306 11.3614 10.6253 11.8747C11.5693 14.6534 13.18 17.0694 13.8333 17.0694C14.084 17.0694 14.1933 16.9587 14.1933 16.3334V13.4721C14.1106 12.1667 13.4173 12.0561 13.4173 11.5841C13.4262 11.4596 13.4832 11.3435 13.5763 11.2603C13.6694 11.1772 13.7913 11.1336 13.916 11.1387H16.972C17.3893 11.1387 17.528 11.3467 17.528 11.8467V15.7081C17.528 16.1254 17.708 16.2641 17.8333 16.2641C18.084 16.2641 18.2773 16.1254 18.736 15.6667C19.7211 14.4653 20.526 13.1269 21.1253 11.6934C21.1866 11.5212 21.3025 11.3738 21.4553 11.2737C21.6082 11.1735 21.7896 11.1261 21.972 11.1387H23.9173C24.5 11.1387 24.624 11.4307 24.5 11.8467C23.7926 13.4313 22.9174 14.9355 21.8893 16.3334C21.68 16.6534 21.596 16.8201 21.8893 17.1947C22.0826 17.4867 22.764 18.0561 23.2226 18.5974C23.8892 19.2623 24.4427 20.0315 24.8613 20.8747C25.028 21.4161 24.7493 21.6934 24.1946 21.6934Z" fill="white"/>
</svg>
